<svg width="500" height="606" viewBox="0 0 500 606" fill="none" xmlns="http://www.w3.org/2000/svg">
<g filter="url(#filter0_d_8_266)">
<rect x="25" y="46" width="224" height="309" rx="13" fill="white"/>
</g>
<mask id="mask0_8_266" style="mask-type:luminance" maskUnits="userSpaceOnUse" x="25" y="46" width="224" height="309">
<rect x="25" y="46" width="224" height="309" rx="13" fill="white"/>
</mask>
<g mask="url(#mask0_8_266)">
<path fill-rule="evenodd" clip-rule="evenodd" d="M-11.8262 286.688L81.5 255.026L137 173.171L193.5 191.18L268.669 74.509V315L-11.8262 314V286.688Z" fill="url(#paint0_linear_8_266)"/>
<path d="M-11.8262 286.688L81.5 255.026L137 173.171L193.5 191.18L268.669 74.509V315" stroke="#5175FF" stroke-width="2"/>
<rect opacity="0.152227" x="137" y="46" width="1" height="250" fill="#5175FF"/>
<rect opacity="0.152227" x="81" y="46" width="1" height="250" fill="#5175FF"/>
<rect opacity="0.152227" x="194" y="46" width="1" height="250" fill="#5175FF"/>
<circle cx="137" cy="173" r="6" fill="#5175FF"/>
<circle opacity="0.25" cx="137" cy="173" r="17.5" stroke="#5175FF"/>
<circle cx="81" cy="255" r="6" fill="#5175FF"/>
<circle cx="194" cy="191" r="6" fill="#5175FF"/>
<circle cx="249" cy="106" r="6" fill="#5175FF"/>
<circle cx="25" cy="274" r="6" fill="#5175FF"/>
<path opacity="0.5" d="M128.105 340.934L128.025 339.489C128.652 339.489 129.117 339.34 129.421 339.043C129.726 338.746 129.878 338.298 129.878 337.7V330.943H131.532V337.679C131.532 338.452 131.416 339.077 131.183 339.553C130.954 340.033 130.587 340.382 130.082 340.601C129.581 340.823 128.922 340.934 128.105 340.934ZM137.639 339H136.296L136.216 338.361C136.019 338.597 135.775 338.782 135.485 338.914C135.195 339.043 134.877 339.107 134.529 339.107C134.153 339.107 133.819 339.036 133.525 338.893C133.231 338.746 133 338.545 132.832 338.291C132.664 338.033 132.58 337.741 132.58 337.416C132.58 337.072 132.671 336.769 132.854 336.508C133.036 336.246 133.287 336.042 133.605 335.896C133.928 335.745 134.293 335.67 134.701 335.67C134.941 335.67 135.181 335.697 135.421 335.75C135.664 335.804 135.89 335.879 136.098 335.976V335.836C136.098 335.622 136.037 335.437 135.915 335.283C135.797 335.126 135.632 335.004 135.421 334.918C135.213 334.832 134.98 334.789 134.723 334.789C134.476 334.789 134.23 334.828 133.987 334.907C133.747 334.986 133.525 335.104 133.321 335.262L132.902 334.085C133.264 333.899 133.629 333.76 133.998 333.667C134.37 333.57 134.73 333.521 135.077 333.521C135.6 333.521 136.053 333.625 136.436 333.833C136.819 334.037 137.115 334.327 137.322 334.703C137.534 335.076 137.639 335.518 137.639 336.03V339ZM134.868 337.92C135.072 337.92 135.267 337.876 135.453 337.786C135.639 337.697 135.79 337.575 135.904 337.421C136.022 337.267 136.085 337.097 136.092 336.911V336.873C135.935 336.766 135.759 336.683 135.566 336.626C135.376 336.565 135.183 336.535 134.986 336.535C134.692 336.535 134.452 336.599 134.266 336.728C134.08 336.857 133.987 337.023 133.987 337.228C133.987 337.36 134.024 337.48 134.1 337.587C134.178 337.691 134.284 337.774 134.417 337.834C134.549 337.892 134.699 337.92 134.868 337.92ZM144.203 339H142.661V336.207C142.661 335.799 142.564 335.48 142.371 335.251C142.181 335.022 141.918 334.907 141.582 334.907C141.345 334.907 141.136 334.965 140.953 335.079C140.774 335.19 140.634 335.349 140.534 335.557C140.434 335.761 140.384 336.007 140.384 336.293V339H138.842V333.629H140.088L140.142 334.488C140.335 334.173 140.593 333.933 140.916 333.769C141.238 333.604 141.61 333.521 142.033 333.521C142.706 333.521 143.236 333.729 143.623 334.145C144.009 334.556 144.203 335.122 144.203 335.842V339Z" fill="#747B95"/>
<path opacity="0.5" d="M71.4502 339V330.943H74.0874C75.0614 330.943 75.9046 331.108 76.6172 331.438C77.3298 331.767 77.8812 332.232 78.2715 332.834C78.6618 333.436 78.8569 334.148 78.8569 334.972C78.8569 335.792 78.6618 336.504 78.2715 337.109C77.8812 337.711 77.3298 338.176 76.6172 338.506C75.9046 338.835 75.0614 339 74.0874 339H71.4502ZM73.1045 337.555H74.1465C74.791 337.555 75.3371 337.455 75.7847 337.254C76.2358 337.05 76.5778 336.757 76.8105 336.374C77.0469 335.987 77.165 335.52 77.165 334.972C77.165 334.42 77.0469 333.953 76.8105 333.57C76.5778 333.187 76.2358 332.895 75.7847 332.694C75.3371 332.49 74.791 332.388 74.1465 332.388H73.1045V337.555ZM84.8403 338.398C84.1743 338.871 83.4456 339.107 82.6543 339.107C82.0671 339.107 81.5389 338.982 81.0698 338.731C80.6043 338.477 80.2355 338.133 79.9634 337.7C79.6948 337.267 79.5605 336.778 79.5605 336.234C79.5605 335.715 79.6823 335.251 79.9258 334.843C80.1729 334.435 80.5076 334.112 80.9302 333.876C81.3527 333.64 81.8325 333.521 82.3696 333.521C82.9246 333.521 83.4134 333.652 83.8359 333.914C84.2585 334.171 84.5879 334.533 84.8242 334.999C85.0605 335.46 85.1787 335.996 85.1787 336.604V336.776H81.2202C81.2847 336.988 81.3885 337.174 81.5317 337.335C81.6785 337.493 81.8612 337.618 82.0796 337.711C82.3016 337.804 82.554 337.851 82.8369 337.851C83.3848 337.851 83.895 337.673 84.3677 337.319L84.8403 338.398ZM81.1504 335.992H83.7554C83.7267 335.759 83.6533 335.555 83.5352 335.38C83.4206 335.201 83.2684 335.061 83.0786 334.961C82.8924 334.861 82.6829 334.811 82.4502 334.811C82.2139 334.811 82.0026 334.862 81.8164 334.966C81.6338 335.07 81.4852 335.21 81.3706 335.385C81.256 335.561 81.1826 335.763 81.1504 335.992ZM90.915 338.146C90.6536 338.447 90.3332 338.683 89.9536 338.855C89.5741 339.023 89.1569 339.107 88.7021 339.107C88.1507 339.107 87.6566 338.987 87.2197 338.748C86.7865 338.504 86.4445 338.171 86.1938 337.749C85.9468 337.326 85.8232 336.848 85.8232 336.314C85.8232 335.777 85.9468 335.299 86.1938 334.88C86.4445 334.458 86.7865 334.127 87.2197 333.887C87.6566 333.643 88.1507 333.521 88.7021 333.521C89.1533 333.521 89.5687 333.606 89.9482 333.774C90.3278 333.942 90.6483 334.175 90.9097 334.472L90.002 335.423C89.8623 335.262 89.6851 335.136 89.4702 335.047C89.259 334.954 89.0369 334.907 88.8042 334.907C88.5356 334.907 88.2957 334.968 88.0845 335.09C87.8732 335.208 87.7067 335.373 87.585 335.584C87.4632 335.792 87.4023 336.032 87.4023 336.304C87.4023 336.579 87.4632 336.825 87.585 337.04C87.7067 337.254 87.8732 337.423 88.0845 337.544C88.2957 337.663 88.5356 337.722 88.8042 337.722C89.0369 337.722 89.2607 337.677 89.4756 337.587C89.6904 337.494 89.8659 337.367 90.002 337.206L90.915 338.146Z" fill="#747B95"/>
<path opacity="0.5" d="M22.3735 339H20.4722L16.707 333.5V339H15.0527V330.943H16.9541L20.7192 336.454V330.943H22.3735V339ZM26.2407 339.107C25.6893 339.107 25.1951 338.987 24.7583 338.748C24.3215 338.504 23.9777 338.173 23.7271 337.754C23.48 337.331 23.3564 336.852 23.3564 336.314C23.3564 335.781 23.48 335.305 23.7271 334.886C23.9777 334.463 24.3215 334.13 24.7583 333.887C25.1951 333.643 25.6893 333.521 26.2407 333.521C26.7922 333.521 27.2827 333.643 27.7124 333.887C28.1457 334.13 28.4858 334.463 28.7329 334.886C28.9836 335.305 29.1089 335.781 29.1089 336.314C29.1089 336.852 28.9836 337.331 28.7329 337.754C28.4858 338.173 28.1457 338.504 27.7124 338.748C27.2827 338.987 26.7922 339.107 26.2407 339.107ZM26.2354 337.727C26.4824 337.727 26.7026 337.666 26.896 337.544C27.0929 337.419 27.2469 337.251 27.3579 337.04C27.4725 336.825 27.5298 336.581 27.5298 336.309C27.5298 336.041 27.4725 335.801 27.3579 335.589C27.2469 335.378 27.0929 335.212 26.896 335.09C26.7026 334.965 26.4824 334.902 26.2354 334.902C25.9847 334.902 25.7609 334.965 25.564 335.09C25.3706 335.212 25.2166 335.378 25.1021 335.589C24.991 335.801 24.9355 336.041 24.9355 336.309C24.9355 336.581 24.991 336.825 25.1021 337.04C25.2166 337.251 25.3706 337.419 25.564 337.544C25.7609 337.666 25.9847 337.727 26.2354 337.727ZM35.377 333.629L33.1855 339H31.6924L29.501 333.629H31.1499L32.4443 337.442L33.7388 333.629H35.377Z" fill="#747B95"/>
<path opacity="0.5" d="M183.955 339V330.943H188.993V332.388H185.609V334.22H188.773V335.67H185.609V339H183.955ZM195.197 338.398C194.531 338.871 193.802 339.107 193.011 339.107C192.424 339.107 191.895 338.982 191.426 338.731C190.961 338.477 190.592 338.133 190.32 337.7C190.051 337.267 189.917 336.778 189.917 336.234C189.917 335.715 190.039 335.251 190.282 334.843C190.529 334.435 190.864 334.112 191.287 333.876C191.709 333.64 192.189 333.521 192.726 333.521C193.281 333.521 193.77 333.652 194.192 333.914C194.615 334.171 194.944 334.533 195.181 334.999C195.417 335.46 195.535 335.996 195.535 336.604V336.776H191.577C191.641 336.988 191.745 337.174 191.888 337.335C192.035 337.493 192.218 337.618 192.436 337.711C192.658 337.804 192.91 337.851 193.193 337.851C193.741 337.851 194.251 337.673 194.724 337.319L195.197 338.398ZM191.507 335.992H194.112C194.083 335.759 194.01 335.555 193.892 335.38C193.777 335.201 193.625 335.061 193.435 334.961C193.249 334.861 193.039 334.811 192.807 334.811C192.57 334.811 192.359 334.862 192.173 334.966C191.99 335.07 191.842 335.21 191.727 335.385C191.612 335.561 191.539 335.763 191.507 335.992ZM197.866 339H196.513V330.943H198.054V334.241C198.28 334.016 198.541 333.84 198.838 333.715C199.139 333.586 199.465 333.521 199.816 333.521C200.31 333.521 200.749 333.643 201.132 333.887C201.515 334.127 201.818 334.458 202.04 334.88C202.262 335.299 202.373 335.777 202.373 336.314C202.373 336.848 202.262 337.326 202.04 337.749C201.818 338.171 201.515 338.504 201.132 338.748C200.749 338.987 200.31 339.107 199.816 339.107C199.436 339.107 199.085 339.034 198.763 338.887C198.444 338.737 198.171 338.531 197.941 338.27L197.866 339ZM199.424 337.727C199.685 337.727 199.918 337.666 200.122 337.544C200.33 337.423 200.493 337.254 200.611 337.04C200.733 336.825 200.793 336.581 200.793 336.309C200.793 336.041 200.733 335.801 200.611 335.589C200.493 335.375 200.33 335.206 200.122 335.084C199.918 334.963 199.685 334.902 199.424 334.902C199.177 334.902 198.951 334.957 198.747 335.068C198.547 335.179 198.385 335.332 198.264 335.525C198.142 335.718 198.072 335.94 198.054 336.191V336.427C198.072 336.678 198.142 336.902 198.264 337.099C198.385 337.292 198.547 337.446 198.747 337.561C198.948 337.672 199.173 337.727 199.424 337.727Z" fill="#747B95"/>
<path opacity="0.5" d="M248.006 339H246.352V333.307L244.338 337.646H243.06L241.051 333.323V339H239.396V330.943H241.497L243.699 335.81L245.901 330.943H248.006V339ZM254.113 339H252.771L252.69 338.361C252.493 338.597 252.25 338.782 251.959 338.914C251.669 339.043 251.351 339.107 251.003 339.107C250.627 339.107 250.293 339.036 249.999 338.893C249.705 338.746 249.474 338.545 249.306 338.291C249.138 338.033 249.054 337.741 249.054 337.416C249.054 337.072 249.145 336.769 249.328 336.508C249.51 336.246 249.761 336.042 250.08 335.896C250.402 335.745 250.767 335.67 251.175 335.67C251.415 335.67 251.655 335.697 251.895 335.75C252.139 335.804 252.364 335.879 252.572 335.976V335.836C252.572 335.622 252.511 335.437 252.389 335.283C252.271 335.126 252.106 335.004 251.895 334.918C251.687 334.832 251.455 334.789 251.197 334.789C250.95 334.789 250.704 334.828 250.461 334.907C250.221 334.986 249.999 335.104 249.795 335.262L249.376 334.085C249.738 333.899 250.103 333.76 250.472 333.667C250.844 333.57 251.204 333.521 251.551 333.521C252.074 333.521 252.527 333.625 252.91 333.833C253.293 334.037 253.589 334.327 253.796 334.703C254.008 335.076 254.113 335.518 254.113 336.03V339ZM251.342 337.92C251.546 337.92 251.741 337.876 251.927 337.786C252.113 337.697 252.264 337.575 252.378 337.421C252.497 337.267 252.559 337.097 252.566 336.911V336.873C252.409 336.766 252.233 336.683 252.04 336.626C251.85 336.565 251.657 336.535 251.46 336.535C251.166 336.535 250.926 336.599 250.74 336.728C250.554 336.857 250.461 337.023 250.461 337.228C250.461 337.36 250.499 337.48 250.574 337.587C250.653 337.691 250.758 337.774 250.891 337.834C251.023 337.892 251.174 337.92 251.342 337.92ZM256.858 339H255.316V333.629H256.659L256.713 334.558C256.892 334.232 257.135 333.978 257.443 333.795C257.751 333.613 258.104 333.521 258.501 333.521C258.616 333.521 258.731 333.53 258.845 333.548C258.963 333.563 259.083 333.586 259.205 333.618L259.012 335.004C258.775 334.936 258.552 334.902 258.34 334.902C258.043 334.902 257.782 334.97 257.556 335.106C257.334 335.238 257.162 335.425 257.041 335.665C256.919 335.901 256.858 336.178 256.858 336.497V339Z" fill="#747B95"/>
<rect opacity="0.25" x="25" y="314" width="224" height="1" fill="#747B95"/>
<rect opacity="0.25" x="137" y="306" width="1" height="8" fill="#747B95"/>
<rect opacity="0.25" x="81" y="306" width="1" height="8" fill="#747B95"/>
<rect opacity="0.25" x="193" y="306" width="1" height="8" fill="#747B95"/>
</g>
<g filter="url(#filter1_d_8_266)">
<rect x="25" y="385" width="224" height="146" rx="13" fill="#333950"/>
</g>
<mask id="mask1_8_266" style="mask-type:luminance" maskUnits="userSpaceOnUse" x="25" y="385" width="224" height="146">
<rect x="25" y="385" width="224" height="146" rx="13" fill="white"/>
</mask>
<g mask="url(#mask1_8_266)">
<path fill-rule="evenodd" clip-rule="evenodd" d="M105.64 477.552V480H89.152V477.552L95.128 476.688L111.4 426H118.888L136.168 476.904L141.928 477.552V480H117.376V477.552L123.784 476.832L119.392 462.936H102.832L98.872 476.616L105.64 477.552ZM103.552 460.416H118.6L110.752 435.792L103.552 460.416ZM176.776 481.224C181.384 481.224 184.12 479.568 185.92 475.608L184.696 474.6C183.328 476.76 182.536 477.336 181.456 477.336C180.088 477.336 179.224 476.4 179.224 473.664V454.296C179.224 443.856 175.12 439.464 164.896 439.464C153.736 439.464 147.472 443.784 146.896 450.552C147.472 452.928 149.272 454.224 151.864 454.224C154.6 454.224 157.048 452.28 157.264 447.384L157.768 442.272C158.848 442.056 159.784 441.984 160.792 441.984C166.264 441.984 167.992 444.216 167.992 451.704V456.096C165.472 456.744 162.952 457.392 160.936 457.968C149.344 461.352 145.6 464.88 145.6 471.432C145.6 477.48 149.92 481.224 156.112 481.224C161.872 481.224 164.608 478.992 168.28 474.96C169.36 478.848 172.024 481.224 176.776 481.224ZM156.328 469.992C156.328 474.312 158.344 476.328 161.728 476.328C163.672 476.328 165.328 475.392 167.992 473.016V458.04C166.336 458.472 164.896 458.904 164.032 459.264C158.992 461.352 156.328 464.736 156.328 469.992Z" fill="#FEFEFE"/>
<path d="M88 485V489H183.132V485H88Z" fill="#FEFEFE"/>
<g opacity="0.15">
<path d="M-42 456V460H53.132V456H-42Z" fill="#FEFEFE"/>
</g>
<g opacity="0.15">
<path d="M218 456V460H313.132V456H218Z" fill="#FEFEFE"/>
</g>
</g>
<g clip-path="url(#clip0_8_266)">
<g filter="url(#filter2_d_8_266)">
<rect x="276" width="224" height="483" rx="13" fill="#5175FF"/>
</g>
<rect opacity="0.15" x="276" y="182" width="224" height="1" fill="white"/>
<circle opacity="0.145996" cx="388" cy="91" r="55.5" stroke="white" stroke-linejoin="round"/>
<path d="M364.234 112.469C362.609 112.469 361.188 112.193 359.969 111.641C358.75 111.089 357.802 110.312 357.125 109.312C356.458 108.302 356.125 107.125 356.125 105.781C356.125 104.292 356.542 103.01 357.375 101.938C358.219 100.854 359.365 100.073 360.812 99.5938C359.604 99.1354 358.656 98.4375 357.969 97.5C357.292 96.5521 356.953 95.4323 356.953 94.1406C356.953 92.9115 357.25 91.8438 357.844 90.9375C358.448 90.0312 359.297 89.3333 360.391 88.8438C361.484 88.3438 362.771 88.0938 364.25 88.0938C365.719 88.0938 367 88.3438 368.094 88.8438C369.188 89.3333 370.031 90.0312 370.625 90.9375C371.229 91.8438 371.531 92.9115 371.531 94.1406C371.531 95.4323 371.188 96.5521 370.5 97.5C369.823 98.4375 368.88 99.1354 367.672 99.5938C369.13 100.073 370.276 100.854 371.109 101.938C371.953 103.01 372.375 104.292 372.375 105.781C372.375 107.115 372.036 108.286 371.359 109.297C370.682 110.297 369.734 111.078 368.516 111.641C367.297 112.193 365.87 112.469 364.234 112.469ZM364.25 97.5625C365.021 97.5625 365.646 97.2969 366.125 96.7656C366.604 96.224 366.844 95.5208 366.844 94.6562C366.844 93.7917 366.604 93.0885 366.125 92.5469C365.646 92.0052 365.021 91.7344 364.25 91.7344C363.479 91.7344 362.849 92.0052 362.359 92.5469C361.88 93.0885 361.641 93.7917 361.641 94.6562C361.641 95.5208 361.88 96.224 362.359 96.7656C362.839 97.2969 363.469 97.5625 364.25 97.5625ZM364.25 108.641C364.906 108.641 365.484 108.495 365.984 108.203C366.484 107.901 366.875 107.479 367.156 106.938C367.438 106.396 367.578 105.776 367.578 105.078C367.578 104.359 367.438 103.734 367.156 103.203C366.875 102.661 366.484 102.245 365.984 101.953C365.484 101.651 364.901 101.5 364.234 101.5C363.578 101.5 363 101.651 362.5 101.953C362.01 102.245 361.625 102.661 361.344 103.203C361.062 103.734 360.922 104.359 360.922 105.078C360.922 105.776 361.062 106.396 361.344 106.938C361.625 107.469 362.016 107.885 362.516 108.188C363.016 108.49 363.594 108.641 364.25 108.641ZM381.25 112H376.047L383.969 92.7656H374.156V88.5625H389.625V91.7031L381.25 112ZM396.391 98.3594C394.807 98.3594 393.526 97.8958 392.547 96.9688C391.578 96.0417 391.094 94.8229 391.094 93.3125C391.094 91.7917 391.578 90.5677 392.547 89.6406C393.526 88.7135 394.807 88.25 396.391 88.25C397.984 88.25 399.266 88.7135 400.234 89.6406C401.214 90.5677 401.703 91.7917 401.703 93.3125C401.703 94.8229 401.214 96.0417 400.234 96.9688C399.266 97.8958 397.984 98.3594 396.391 98.3594ZM397.344 111.984H393.641L408.75 88.5469H412.453L397.344 111.984ZM396.391 95.8594C397.047 95.8594 397.578 95.625 397.984 95.1562C398.391 94.6771 398.594 94.0573 398.594 93.2969C398.594 92.526 398.391 91.9115 397.984 91.4531C397.578 90.9844 397.047 90.75 396.391 90.75C395.734 90.75 395.203 90.9844 394.797 91.4531C394.401 91.9115 394.203 92.526 394.203 93.2969C394.203 94.0573 394.401 94.6771 394.797 95.1562C395.203 95.625 395.734 95.8594 396.391 95.8594ZM409.578 112.328C407.995 112.328 406.714 111.865 405.734 110.938C404.766 110 404.281 108.776 404.281 107.266C404.281 105.745 404.766 104.521 405.734 103.594C406.714 102.667 407.995 102.203 409.578 102.203C411.172 102.203 412.453 102.667 413.422 103.594C414.391 104.521 414.875 105.745 414.875 107.266C414.875 108.776 414.385 110 413.406 110.938C412.438 111.865 411.161 112.328 409.578 112.328ZM409.578 109.812C410.234 109.812 410.76 109.578 411.156 109.109C411.562 108.641 411.766 108.026 411.766 107.266C411.766 106.495 411.562 105.875 411.156 105.406C410.76 104.938 410.234 104.703 409.578 104.703C408.911 104.703 408.38 104.938 407.984 105.406C407.589 105.875 407.391 106.495 407.391 107.266C407.391 108.026 407.589 108.641 407.984 109.109C408.38 109.578 408.911 109.812 409.578 109.812Z" fill="#5CFCD3"/>
<path d="M361.219 245L358.484 241.152C360.008 240.319 361.401 239.368 362.664 238.301C363.927 237.233 365.027 236.094 365.965 234.883C366.915 233.672 367.677 232.428 368.25 231.152C367.521 231.934 366.635 232.539 365.594 232.969C364.552 233.398 363.4 233.613 362.137 233.613C360.418 233.613 358.901 233.236 357.586 232.48C356.271 231.725 355.236 230.69 354.48 229.375C353.738 228.06 353.367 226.543 353.367 224.824C353.367 222.949 353.81 221.283 354.695 219.824C355.594 218.353 356.824 217.201 358.387 216.367C359.949 215.534 361.72 215.117 363.699 215.117C365.809 215.117 367.632 215.586 369.168 216.523C370.704 217.461 371.896 218.789 372.742 220.508C373.589 222.214 374.012 224.225 374.012 226.543C374.012 228.418 373.725 230.234 373.152 231.992C372.579 233.75 371.746 235.423 370.652 237.012C369.559 238.587 368.217 240.052 366.629 241.406C365.053 242.747 363.25 243.945 361.219 245ZM363.602 229.727C364.422 229.727 365.145 229.525 365.77 229.121C366.395 228.717 366.889 228.164 367.254 227.461C367.618 226.758 367.801 225.964 367.801 225.078C367.801 224.193 367.618 223.398 367.254 222.695C366.902 221.979 366.414 221.413 365.789 220.996C365.164 220.579 364.461 220.371 363.68 220.371C362.898 220.371 362.195 220.586 361.57 221.016C360.945 221.432 360.451 222.005 360.086 222.734C359.721 223.451 359.539 224.264 359.539 225.176C359.539 226.048 359.715 226.829 360.066 227.52C360.418 228.197 360.9 228.737 361.512 229.141C362.124 229.531 362.82 229.727 363.602 229.727ZM387.527 245.586C385.496 245.586 383.719 245.241 382.195 244.551C380.672 243.861 379.487 242.891 378.641 241.641C377.807 240.378 377.391 238.906 377.391 237.227C377.391 235.365 377.911 233.763 378.953 232.422C380.008 231.068 381.44 230.091 383.25 229.492C381.74 228.919 380.555 228.047 379.695 226.875C378.849 225.69 378.426 224.29 378.426 222.676C378.426 221.139 378.797 219.805 379.539 218.672C380.294 217.539 381.355 216.667 382.723 216.055C384.09 215.43 385.698 215.117 387.547 215.117C389.383 215.117 390.984 215.43 392.352 216.055C393.719 216.667 394.773 217.539 395.516 218.672C396.271 219.805 396.648 221.139 396.648 222.676C396.648 224.29 396.219 225.69 395.359 226.875C394.513 228.047 393.335 228.919 391.824 229.492C393.647 230.091 395.079 231.068 396.121 232.422C397.176 233.763 397.703 235.365 397.703 237.227C397.703 238.893 397.28 240.358 396.434 241.621C395.587 242.871 394.402 243.848 392.879 244.551C391.355 245.241 389.572 245.586 387.527 245.586ZM387.547 226.953C388.51 226.953 389.292 226.621 389.891 225.957C390.49 225.28 390.789 224.401 390.789 223.32C390.789 222.24 390.49 221.361 389.891 220.684C389.292 220.007 388.51 219.668 387.547 219.668C386.583 219.668 385.796 220.007 385.184 220.684C384.585 221.361 384.285 222.24 384.285 223.32C384.285 224.401 384.585 225.28 385.184 225.957C385.783 226.621 386.57 226.953 387.547 226.953ZM387.547 240.801C388.367 240.801 389.09 240.618 389.715 240.254C390.34 239.876 390.828 239.349 391.18 238.672C391.531 237.995 391.707 237.22 391.707 236.348C391.707 235.449 391.531 234.668 391.18 234.004C390.828 233.327 390.34 232.806 389.715 232.441C389.09 232.064 388.361 231.875 387.527 231.875C386.707 231.875 385.984 232.064 385.359 232.441C384.747 232.806 384.266 233.327 383.914 234.004C383.562 234.668 383.387 235.449 383.387 236.348C383.387 237.22 383.562 237.995 383.914 238.672C384.266 239.336 384.754 239.857 385.379 240.234C386.004 240.612 386.727 240.801 387.547 240.801ZM407.098 245H401.492V215.703H407.098V233.711L409.012 231.406L414.637 225.469H421.648L413.387 234.16L422.625 245H415.379L409.539 237.676L407.098 239.902V245Z" fill="white"/>
<rect x="308" y="282" width="14" height="14" rx="7" fill="white"/>
<rect x="337" y="282" width="131" height="14" rx="7" fill="#7DA7FF"/>
<rect x="308" y="316" width="14" height="14" rx="7" fill="white"/>
<rect x="337" y="316" width="83" height="14" rx="7" fill="#7DA7FF"/>
<rect x="308" y="350" width="14" height="14" rx="7" fill="white"/>
<rect x="337" y="350" width="131" height="14" rx="7" fill="#7DA7FF"/>
<rect x="308" y="384" width="14" height="14" rx="7" fill="white"/>
<rect x="337" y="384" width="79" height="14" rx="7" fill="#7DA7FF"/>
<rect x="308" y="418" width="14" height="14" rx="7" fill="white"/>
<rect x="337" y="418" width="131" height="14" rx="7" fill="#7DA7FF"/>
<g clip-path="url(#clip1_8_266)">
<path d="M366.475 142.284L369.997 134.275C375.932 136.885 382.366 138.25 389 138.25C415.095 138.25 436.25 117.095 436.25 91C436.25 64.9045 415.095 43.75 389 43.75C362.905 43.75 341.75 64.9045 341.75 91H333C333 60.0721 358.072 35 389 35C419.928 35 445 60.0721 445 91C445 121.928 419.928 147 389 147C381.147 147 373.514 145.38 366.475 142.284Z" fill="#5CFCD3"/>
</g>
</g>
<defs>
<filter id="filter0_d_8_266" x="0" y="46" width="274" height="384" filterUnits="userSpaceOnUse" color-interpolation-filters="sRGB">
<feFlood flood-opacity="0" result="BackgroundImageFix"/>
<feColorMatrix in="SourceAlpha" type="matrix" values="0 0 0 0 0 0 0 0 0 0 0 0 0 0 0 0 0 0 127 0" result="hardAlpha"/>
<feMorphology radius="25" operator="erode" in="SourceAlpha" result="effect1_dropShadow_8_266"/>
<feOffset dy="50"/>
<feGaussianBlur stdDeviation="25"/>
<feColorMatrix type="matrix" values="0 0 0 0 0.293478 0 0 0 0 0.35972 0 0 0 0 0.604535 0 0 0 0.247159 0"/>
<feBlend mode="normal" in2="BackgroundImageFix" result="effect1_dropShadow_8_266"/>
<feBlend mode="normal" in="SourceGraphic" in2="effect1_dropShadow_8_266" result="shape"/>
</filter>
<filter id="filter1_d_8_266" x="0" y="385" width="274" height="221" filterUnits="userSpaceOnUse" color-interpolation-filters="sRGB">
<feFlood flood-opacity="0" result="BackgroundImageFix"/>
<feColorMatrix in="SourceAlpha" type="matrix" values="0 0 0 0 0 0 0 0 0 0 0 0 0 0 0 0 0 0 127 0" result="hardAlpha"/>
<feMorphology radius="25" operator="erode" in="SourceAlpha" result="effect1_dropShadow_8_266"/>
<feOffset dy="50"/>
<feGaussianBlur stdDeviation="25"/>
<feColorMatrix type="matrix" values="0 0 0 0 0.293478 0 0 0 0 0.35972 0 0 0 0 0.604535 0 0 0 0.247159 0"/>
<feBlend mode="normal" in2="BackgroundImageFix" result="effect1_dropShadow_8_266"/>
<feBlend mode="normal" in="SourceGraphic" in2="effect1_dropShadow_8_266" result="shape"/>
</filter>
<filter id="filter2_d_8_266" x="251" y="0" width="274" height="558" filterUnits="userSpaceOnUse" color-interpolation-filters="sRGB">
<feFlood flood-opacity="0" result="BackgroundImageFix"/>
<feColorMatrix in="SourceAlpha" type="matrix" values="0 0 0 0 0 0 0 0 0 0 0 0 0 0 0 0 0 0 127 0" result="hardAlpha"/>
<feMorphology radius="25" operator="erode" in="SourceAlpha" result="effect1_dropShadow_8_266"/>
<feOffset dy="50"/>
<feGaussianBlur stdDeviation="25"/>
<feColorMatrix type="matrix" values="0 0 0 0 0.293478 0 0 0 0 0.35972 0 0 0 0 0.604535 0 0 0 0.247159 0"/>
<feBlend mode="normal" in2="BackgroundImageFix" result="effect1_dropShadow_8_266"/>
<feBlend mode="normal" in="SourceGraphic" in2="effect1_dropShadow_8_266" result="shape"/>
</filter>
<linearGradient id="paint0_linear_8_266" x1="-11.8262" y1="74.509" x2="-11.8262" y2="315" gradientUnits="userSpaceOnUse">
<stop stop-color="#024AFF" stop-opacity="0.148028"/>
<stop offset="1" stop-color="#3B77CF" stop-opacity="0.01"/>
</linearGradient>
<clipPath id="clip0_8_266">
<rect width="224" height="483" fill="white" transform="translate(276)"/>
</clipPath>
<clipPath id="clip1_8_266">
<rect width="112" height="112" fill="white" transform="translate(333 35)"/>
</clipPath>
</defs>
</svg>
