<svg width="295" height="358" viewBox="0 0 295 358" fill="none" xmlns="http://www.w3.org/2000/svg">
<g filter="url(#filter0_d_12_544)">
<rect x="14.7368" y="27.1158" width="132.042" height="182.147" rx="7.66316" fill="white"/>
</g>
<mask id="mask0_12_544" style="mask-type:luminance" maskUnits="userSpaceOnUse" x="14" y="27" width="133" height="183">
<rect x="14.7368" y="27.1158" width="132.042" height="182.147" rx="7.66316" fill="white"/>
</mask>
<g mask="url(#mask0_12_544)">
<path fill-rule="evenodd" clip-rule="evenodd" d="M-6.97131 168.995L48.042 150.331L80.7578 102.08L114.063 112.696L158.373 43.9211V185.684L-6.97131 185.095V168.995Z" fill="url(#paint0_linear_12_544)"/>
<path d="M-6.97131 168.995L48.042 150.331L80.7578 102.08L114.063 112.696L158.373 43.9211V185.684" stroke="#5175FF" stroke-width="1.17895"/>
<rect opacity="0.152227" x="80.7578" y="27.1158" width="0.589474" height="147.368" fill="#5175FF"/>
<rect opacity="0.152227" x="47.7473" y="27.1158" width="0.589474" height="147.368" fill="#5175FF"/>
<rect opacity="0.152227" x="114.358" y="27.1158" width="0.589474" height="147.368" fill="#5175FF"/>
<circle cx="80.7578" cy="101.979" r="3.53684" fill="#5175FF"/>
<circle opacity="0.25" cx="80.7579" cy="101.979" r="10.3158" stroke="#5175FF" stroke-width="0.589474"/>
<circle cx="47.7473" cy="150.316" r="3.53684" fill="#5175FF"/>
<circle cx="114.358" cy="112.589" r="3.53684" fill="#5175FF"/>
<circle cx="146.779" cy="62.4842" r="3.53684" fill="#5175FF"/>
<circle cx="14.7368" cy="161.516" r="3.53684" fill="#5175FF"/>
<path opacity="0.5" d="M75.5148 200.487L75.4673 199.635C75.8367 199.635 76.1111 199.548 76.2905 199.373C76.4699 199.198 76.5596 198.934 76.5596 198.581V194.598H77.5348V198.569C77.5348 199.024 77.4662 199.393 77.329 199.673C77.1939 199.956 76.9775 200.162 76.6799 200.291C76.3844 200.422 75.996 200.487 75.5148 200.487ZM81.1347 199.347H80.3431L80.2956 198.971C80.1795 199.11 80.036 199.219 79.865 199.297C79.6941 199.373 79.5062 199.411 79.3015 199.411C79.0798 199.411 78.8825 199.368 78.7094 199.284C78.5363 199.198 78.4002 199.079 78.301 198.929C78.2018 198.777 78.1522 198.605 78.1522 198.413C78.1522 198.211 78.206 198.032 78.3136 197.878C78.4213 197.724 78.569 197.604 78.7569 197.517C78.9469 197.429 79.1622 197.384 79.4028 197.384C79.5442 197.384 79.6856 197.4 79.827 197.432C79.9706 197.464 80.1036 197.508 80.226 197.565V197.483C80.226 197.356 80.1901 197.247 80.1183 197.156C80.0487 197.064 79.9516 196.992 79.827 196.941C79.7046 196.89 79.5674 196.865 79.4155 196.865C79.2698 196.865 79.1252 196.888 78.9817 196.935C78.8403 196.981 78.7094 197.051 78.5891 197.144L78.3421 196.45C78.5553 196.341 78.7706 196.258 78.988 196.203C79.2075 196.146 79.4197 196.118 79.6244 196.118C79.9326 196.118 80.1996 196.179 80.4254 196.302C80.6513 196.422 80.8254 196.593 80.9479 196.814C81.0724 197.034 81.1347 197.295 81.1347 197.597V199.347ZM79.5009 198.711C79.6213 198.711 79.7363 198.685 79.846 198.632C79.9558 198.579 80.0445 198.507 80.112 198.417C80.1817 198.326 80.2186 198.226 80.2228 198.116V198.094C80.1299 198.03 80.0265 197.982 79.9125 197.948C79.8007 197.912 79.6867 197.894 79.5706 197.894C79.3975 197.894 79.2561 197.932 79.1463 198.008C79.0366 198.084 78.9817 198.182 78.9817 198.303C78.9817 198.381 79.0039 198.451 79.0482 198.515C79.0946 198.576 79.1569 198.624 79.235 198.66C79.3131 198.694 79.4017 198.711 79.5009 198.711ZM85.0037 199.347H84.095V197.701C84.095 197.46 84.038 197.273 83.924 197.137C83.8121 197.002 83.657 196.935 83.4586 196.935C83.3193 196.935 83.1958 196.969 83.0882 197.036C82.9826 197.102 82.9003 197.195 82.8412 197.318C82.7821 197.438 82.7525 197.583 82.7525 197.752V199.347H81.8439V196.181H82.5784L82.6101 196.688C82.724 196.502 82.876 196.361 83.066 196.264C83.256 196.166 83.4755 196.118 83.7245 196.118C84.1214 196.118 84.4338 196.24 84.6617 196.485C84.8897 196.728 85.0037 197.061 85.0037 197.486V199.347Z" fill="#747B95"/>
<path opacity="0.5" d="M42.118 199.347V194.598H43.6726C44.2467 194.598 44.7438 194.695 45.1638 194.889C45.5839 195.084 45.9089 195.358 46.139 195.713C46.3691 196.067 46.4841 196.487 46.4841 196.973C46.4841 197.456 46.3691 197.876 46.139 198.233C45.9089 198.587 45.5839 198.862 45.1638 199.056C44.7438 199.25 44.2467 199.347 43.6726 199.347H42.118ZM43.0932 198.496H43.7074C44.0874 198.496 44.4092 198.437 44.6731 198.318C44.939 198.198 45.1406 198.025 45.2778 197.799C45.4171 197.571 45.4868 197.296 45.4868 196.973C45.4868 196.648 45.4171 196.372 45.2778 196.146C45.1406 195.921 44.939 195.749 44.6731 195.63C44.4092 195.51 44.0874 195.45 43.7074 195.45H43.0932V198.496ZM50.0112 198.993C49.6186 199.271 49.189 199.411 48.7226 199.411C48.3764 199.411 48.0651 199.337 47.7885 199.189C47.5142 199.039 47.2967 198.837 47.1363 198.581C46.978 198.326 46.8989 198.038 46.8989 197.717C46.8989 197.411 46.9706 197.137 47.1142 196.897C47.2598 196.656 47.4572 196.466 47.7062 196.327C47.9553 196.188 48.2381 196.118 48.5547 196.118C48.8819 196.118 49.17 196.195 49.4191 196.349C49.6682 196.501 49.8624 196.714 50.0017 196.989C50.141 197.261 50.2106 197.576 50.2106 197.935V198.037H47.8772C47.9152 198.161 47.9764 198.271 48.0608 198.366C48.1474 198.459 48.255 198.533 48.3838 198.587C48.5146 198.642 48.6635 198.67 48.8302 198.67C49.1531 198.67 49.4539 198.565 49.7325 198.356L50.0112 198.993ZM47.836 197.574H49.3716C49.3547 197.437 49.3115 197.317 49.2418 197.213C49.1743 197.108 49.0845 197.026 48.9727 196.966C48.8629 196.907 48.7394 196.878 48.6022 196.878C48.4629 196.878 48.3384 196.908 48.2286 196.97C48.121 197.031 48.0334 197.113 47.9659 197.217C47.8983 197.32 47.855 197.439 47.836 197.574ZM53.592 198.844C53.438 199.021 53.249 199.161 53.0253 199.262C52.8016 199.361 52.5557 199.411 52.2876 199.411C51.9625 199.411 51.6713 199.34 51.4138 199.199C51.1584 199.055 50.9568 198.859 50.809 198.61C50.6634 198.361 50.5906 198.079 50.5906 197.764C50.5906 197.448 50.6634 197.166 50.809 196.919C50.9568 196.67 51.1584 196.475 51.4138 196.333C51.6713 196.19 51.9625 196.118 52.2876 196.118C52.5536 196.118 52.7984 196.168 53.0221 196.267C53.2459 196.366 53.4348 196.503 53.5889 196.678L53.0538 197.239C52.9715 197.144 52.867 197.07 52.7404 197.017C52.6158 196.962 52.485 196.935 52.3478 196.935C52.1895 196.935 52.048 196.971 51.9235 197.042C51.799 197.112 51.7008 197.209 51.6291 197.334C51.5573 197.456 51.5214 197.598 51.5214 197.758C51.5214 197.921 51.5573 198.065 51.6291 198.192C51.7008 198.318 51.799 198.418 51.9235 198.489C52.048 198.559 52.1895 198.594 52.3478 198.594C52.485 198.594 52.6169 198.567 52.7435 198.515C52.8702 198.46 52.9736 198.385 53.0538 198.29L53.592 198.844Z" fill="#747B95"/>
<path opacity="0.5" d="M13.1885 199.347H12.0677L9.84828 196.105V199.347H8.87312V194.598H9.99392L12.2134 197.847V194.598H13.1885V199.347ZM15.4681 199.411C15.1431 199.411 14.8518 199.34 14.5943 199.199C14.3368 199.055 14.1342 198.86 13.9864 198.613C13.8408 198.364 13.7679 198.081 13.7679 197.764C13.7679 197.45 13.8408 197.169 13.9864 196.922C14.1342 196.673 14.3368 196.477 14.5943 196.333C14.8518 196.19 15.1431 196.118 15.4681 196.118C15.7932 196.118 16.0824 196.19 16.3357 196.333C16.5911 196.477 16.7916 196.673 16.9372 196.922C17.085 197.169 17.1588 197.45 17.1588 197.764C17.1588 198.081 17.085 198.364 16.9372 198.613C16.7916 198.86 16.5911 199.055 16.3357 199.199C16.0824 199.34 15.7932 199.411 15.4681 199.411ZM15.465 198.597C15.6106 198.597 15.7404 198.561 15.8544 198.489C15.9705 198.415 16.0613 198.316 16.1267 198.192C16.1942 198.065 16.228 197.922 16.228 197.761C16.228 197.603 16.1942 197.461 16.1267 197.337C16.0613 197.212 15.9705 197.114 15.8544 197.042C15.7404 196.969 15.6106 196.932 15.465 196.932C15.3172 196.932 15.1853 196.969 15.0692 197.042C14.9552 197.114 14.8645 197.212 14.7969 197.337C14.7315 197.461 14.6988 197.603 14.6988 197.761C14.6988 197.922 14.7315 198.065 14.7969 198.192C14.8645 198.316 14.9552 198.415 15.0692 198.489C15.1853 198.561 15.3172 198.597 15.465 198.597ZM20.8537 196.181L19.5619 199.347H18.6818L17.39 196.181H18.362L19.125 198.429L19.888 196.181H20.8537Z" fill="#747B95"/>
<path opacity="0.5" d="M108.437 199.347V194.598H111.407V195.45H109.412V196.53H111.277V197.384H109.412V199.347H108.437ZM115.063 198.993C114.671 199.271 114.241 199.411 113.775 199.411C113.429 199.411 113.117 199.337 112.841 199.189C112.566 199.039 112.349 198.837 112.189 198.581C112.03 198.326 111.951 198.038 111.951 197.717C111.951 197.411 112.023 197.137 112.166 196.897C112.312 196.656 112.509 196.466 112.759 196.327C113.008 196.188 113.29 196.118 113.607 196.118C113.934 196.118 114.222 196.195 114.471 196.349C114.72 196.501 114.915 196.714 115.054 196.989C115.193 197.261 115.263 197.576 115.263 197.935V198.037H112.929C112.967 198.161 113.029 198.271 113.113 198.366C113.2 198.459 113.307 198.533 113.436 198.587C113.567 198.642 113.716 198.67 113.882 198.67C114.205 198.67 114.506 198.565 114.785 198.356L115.063 198.993ZM112.888 197.574H114.424C114.407 197.437 114.364 197.317 114.294 197.213C114.227 197.108 114.137 197.026 114.025 196.966C113.915 196.907 113.792 196.878 113.655 196.878C113.515 196.878 113.391 196.908 113.281 196.97C113.173 197.031 113.086 197.113 113.018 197.217C112.951 197.32 112.907 197.439 112.888 197.574ZM116.637 199.347H115.839V194.598H116.748V196.542C116.881 196.409 117.035 196.306 117.21 196.232C117.387 196.156 117.579 196.118 117.786 196.118C118.078 196.118 118.336 196.19 118.562 196.333C118.788 196.475 118.966 196.67 119.097 196.919C119.228 197.166 119.293 197.448 119.293 197.764C119.293 198.079 119.228 198.361 119.097 198.61C118.966 198.859 118.788 199.055 118.562 199.199C118.336 199.34 118.078 199.411 117.786 199.411C117.563 199.411 117.356 199.367 117.166 199.281C116.978 199.192 116.816 199.071 116.681 198.917L116.637 199.347ZM117.555 198.597C117.709 198.597 117.846 198.561 117.967 198.489C118.089 198.418 118.185 198.318 118.255 198.192C118.327 198.065 118.363 197.922 118.363 197.761C118.363 197.603 118.327 197.461 118.255 197.337C118.185 197.21 118.089 197.111 117.967 197.039C117.846 196.968 117.709 196.932 117.555 196.932C117.41 196.932 117.277 196.964 117.156 197.03C117.038 197.095 116.943 197.185 116.871 197.299C116.8 197.413 116.758 197.544 116.748 197.691V197.831C116.758 197.979 116.8 198.11 116.871 198.227C116.943 198.341 117.038 198.431 117.156 198.499C117.274 198.564 117.407 198.597 117.555 198.597Z" fill="#747B95"/>
<path opacity="0.5" d="M146.193 199.347H145.218V195.991L144.031 198.55H143.277L142.093 196.001V199.347H141.118V194.598H142.356L143.654 197.467L144.952 194.598H146.193V199.347ZM149.793 199.347H149.002L148.954 198.971C148.838 199.11 148.695 199.219 148.524 199.297C148.353 199.373 148.165 199.411 147.96 199.411C147.738 199.411 147.541 199.368 147.368 199.284C147.195 199.198 147.059 199.079 146.959 198.929C146.86 198.777 146.811 198.605 146.811 198.413C146.811 198.211 146.864 198.032 146.972 197.878C147.08 197.724 147.228 197.604 147.415 197.517C147.605 197.429 147.821 197.384 148.061 197.384C148.203 197.384 148.344 197.4 148.486 197.432C148.629 197.464 148.762 197.508 148.884 197.565V197.483C148.884 197.356 148.849 197.247 148.777 197.156C148.707 197.064 148.61 196.992 148.486 196.941C148.363 196.89 148.226 196.865 148.074 196.865C147.928 196.865 147.784 196.888 147.64 196.935C147.499 196.981 147.368 197.051 147.248 197.144L147.001 196.45C147.214 196.341 147.429 196.258 147.647 196.203C147.866 196.146 148.078 196.118 148.283 196.118C148.591 196.118 148.858 196.179 149.084 196.302C149.31 196.422 149.484 196.593 149.606 196.814C149.731 197.034 149.793 197.295 149.793 197.597V199.347ZM148.159 198.711C148.28 198.711 148.395 198.685 148.505 198.632C148.614 198.579 148.703 198.507 148.77 198.417C148.84 198.326 148.877 198.226 148.881 198.116V198.094C148.788 198.03 148.685 197.982 148.571 197.948C148.459 197.912 148.345 197.894 148.229 197.894C148.056 197.894 147.915 197.932 147.805 198.008C147.695 198.084 147.64 198.182 147.64 198.303C147.64 198.381 147.662 198.451 147.707 198.515C147.753 198.576 147.815 198.624 147.893 198.66C147.972 198.694 148.06 198.711 148.159 198.711ZM151.411 199.347H150.502V196.181H151.294L151.326 196.729C151.431 196.537 151.575 196.387 151.756 196.279C151.938 196.172 152.146 196.118 152.38 196.118C152.447 196.118 152.515 196.123 152.583 196.134C152.652 196.142 152.723 196.156 152.795 196.175L152.681 196.992C152.541 196.952 152.409 196.932 152.285 196.932C152.11 196.932 151.956 196.972 151.823 197.052C151.692 197.13 151.59 197.24 151.519 197.381C151.447 197.521 151.411 197.684 151.411 197.872V199.347Z" fill="#747B95"/>
<rect opacity="0.25" x="14.7368" y="185.095" width="132.042" height="0.589474" fill="#747B95"/>
<rect opacity="0.25" x="80.7578" y="180.379" width="0.589474" height="4.71579" fill="#747B95"/>
<rect opacity="0.25" x="47.7473" y="180.379" width="0.589474" height="4.71579" fill="#747B95"/>
<rect opacity="0.25" x="113.768" y="180.379" width="0.589474" height="4.71579" fill="#747B95"/>
</g>
<g filter="url(#filter1_d_12_544)">
<rect x="14.7368" y="226.947" width="132.042" height="86.0632" rx="7.66316" fill="#333950"/>
</g>
<mask id="mask1_12_544" style="mask-type:luminance" maskUnits="userSpaceOnUse" x="14" y="226" width="133" height="88">
<rect x="14.7368" y="226.947" width="132.042" height="86.0632" rx="7.66316" fill="white"/>
</mask>
<g mask="url(#mask1_12_544)">
<path fill-rule="evenodd" clip-rule="evenodd" d="M62.272 281.504V282.947H52.5527V281.504L56.0754 280.995L65.6673 251.116H70.0813L80.2674 281.122L83.6628 281.504V282.947H69.19V281.504L72.9674 281.08L70.3784 272.889H60.6167L58.2824 280.953L62.272 281.504ZM61.0412 271.403H69.9116L65.2854 256.888L61.0412 271.403ZM104.205 283.669C106.921 283.669 108.534 282.693 109.595 280.358L108.873 279.764C108.067 281.037 107.6 281.377 106.963 281.377C106.157 281.377 105.648 280.825 105.648 279.212V267.796C105.648 261.641 103.229 259.052 97.2018 259.052C90.6233 259.052 86.9308 261.599 86.5913 265.589C86.9308 266.989 87.9919 267.753 89.5198 267.753C91.1326 267.753 92.5756 266.607 92.7029 263.721L93 260.708C93.6367 260.58 94.1884 260.538 94.7826 260.538C98.0082 260.538 99.0268 261.854 99.0268 266.268V268.857L99.0266 268.857C97.5412 269.239 96.0558 269.621 94.8675 269.96C88.0343 271.955 85.8273 274.034 85.8273 277.897C85.8273 281.462 88.3739 283.669 92.0239 283.669C95.4192 283.669 97.032 282.353 99.1966 279.976C99.8332 282.268 101.404 283.669 104.205 283.669ZM92.1512 277.048C92.1512 279.594 93.3396 280.783 95.3344 280.783C96.4803 280.783 97.4565 280.231 99.0268 278.83V270.002C98.0507 270.257 97.2018 270.512 96.6925 270.724C93.7216 271.955 92.1512 273.95 92.1512 277.048Z" fill="#FEFEFE"/>
<path d="M51.8737 285.895V288.253H107.951V285.895H51.8737Z" fill="#FEFEFE"/>
<g opacity="0.15">
<path d="M-24.7579 268.8V271.158H31.3199V268.8H-24.7579Z" fill="#FEFEFE"/>
</g>
<g opacity="0.15">
<path d="M128.505 268.8V271.158H184.583V268.8H128.505Z" fill="#FEFEFE"/>
</g>
</g>
<g clip-path="url(#clip0_12_544)">
<g filter="url(#filter2_d_12_544)">
<rect x="162.695" width="132.042" height="284.716" rx="7.66316" fill="#5175FF"/>
</g>
<rect opacity="0.15" x="162.695" y="107.284" width="132.042" height="0.589474" fill="white"/>
<circle opacity="0.145996" cx="228.716" cy="53.6421" r="32.7158" stroke="white" stroke-width="0.589474" stroke-linejoin="round"/>
<path d="M214.707 65.4342C213.749 65.4342 212.911 65.2715 212.192 64.946C211.474 64.6206 210.915 64.1631 210.516 63.5737C210.123 62.9781 209.926 62.2842 209.926 61.4921C209.926 60.614 210.172 59.8588 210.663 59.2263C211.161 58.5877 211.836 58.1272 212.689 57.8447C211.977 57.5745 211.418 57.1631 211.013 56.6105C210.614 56.0517 210.414 55.3917 210.414 54.6303C210.414 53.9057 210.589 53.2763 210.939 52.7421C211.296 52.2079 211.796 51.7965 212.441 51.5079C213.086 51.2131 213.844 51.0658 214.716 51.0658C215.582 51.0658 216.337 51.2131 216.982 51.5079C217.626 51.7965 218.124 52.2079 218.474 52.7421C218.83 53.2763 219.008 53.9057 219.008 54.6303C219.008 55.3917 218.805 56.0517 218.4 56.6105C218.001 57.1631 217.445 57.5745 216.733 57.8447C217.593 58.1272 218.268 58.5877 218.759 59.2263C219.257 59.8588 219.505 60.614 219.505 61.4921C219.505 62.2781 219.306 62.9688 218.907 63.5645C218.507 64.1539 217.949 64.6145 217.23 64.946C216.512 65.2715 215.671 65.4342 214.707 65.4342ZM214.716 56.6474C215.17 56.6474 215.539 56.4908 215.821 56.1776C216.104 55.8583 216.245 55.4438 216.245 54.9342C216.245 54.4245 216.104 54.0101 215.821 53.6908C215.539 53.3715 215.17 53.2118 214.716 53.2118C214.261 53.2118 213.89 53.3715 213.601 53.6908C213.319 54.0101 213.178 54.4245 213.178 54.9342C213.178 55.4438 213.319 55.8583 213.601 56.1776C213.884 56.4908 214.255 56.6474 214.716 56.6474ZM214.716 63.1776C215.103 63.1776 215.443 63.0917 215.738 62.9197C216.033 62.7417 216.263 62.493 216.429 62.1737C216.595 61.8544 216.678 61.489 216.678 61.0776C216.678 60.6539 216.595 60.2855 216.429 59.9724C216.263 59.6531 216.033 59.4074 215.738 59.2355C215.443 59.0574 215.1 58.9684 214.707 58.9684C214.32 58.9684 213.979 59.0574 213.684 59.2355C213.396 59.4074 213.168 59.6531 213.003 59.9724C212.837 60.2855 212.754 60.6539 212.754 61.0776C212.754 61.489 212.837 61.8544 213.003 62.1737C213.168 62.4868 213.399 62.7324 213.693 62.9105C213.988 63.0886 214.329 63.1776 214.716 63.1776ZM224.737 65.1579H221.67L226.339 53.8197H220.555V51.3421H229.674V53.1934L224.737 65.1579ZM233.662 57.1171C232.729 57.1171 231.973 56.8438 231.396 56.2974C230.825 55.7509 230.539 55.0324 230.539 54.1421C230.539 53.2456 230.825 52.5241 231.396 51.9776C231.973 51.4311 232.729 51.1579 233.662 51.1579C234.601 51.1579 235.357 51.4311 235.928 51.9776C236.505 52.5241 236.793 53.2456 236.793 54.1421C236.793 55.0324 236.505 55.7509 235.928 56.2974C235.357 56.8438 234.601 57.1171 233.662 57.1171ZM234.224 65.1487H232.041L240.947 51.3329H243.13L234.224 65.1487ZM233.662 55.6434C234.049 55.6434 234.362 55.5053 234.601 55.2289C234.841 54.9465 234.961 54.5811 234.961 54.1329C234.961 53.6785 234.841 53.3162 234.601 53.046C234.362 52.7697 234.049 52.6316 233.662 52.6316C233.275 52.6316 232.962 52.7697 232.722 53.046C232.489 53.3162 232.372 53.6785 232.372 54.1329C232.372 54.5811 232.489 54.9465 232.722 55.2289C232.962 55.5053 233.275 55.6434 233.662 55.6434ZM241.436 65.3513C240.502 65.3513 239.747 65.0781 239.17 64.5316C238.599 63.9789 238.313 63.2574 238.313 62.3671C238.313 61.4706 238.599 60.7491 239.17 60.2026C239.747 59.6561 240.502 59.3829 241.436 59.3829C242.375 59.3829 243.13 59.6561 243.701 60.2026C244.272 60.7491 244.558 61.4706 244.558 62.3671C244.558 63.2574 244.269 63.9789 243.692 64.5316C243.121 65.0781 242.369 65.3513 241.436 65.3513ZM241.436 63.8684C241.822 63.8684 242.132 63.7303 242.366 63.4539C242.605 63.1776 242.725 62.8153 242.725 62.3671C242.725 61.9127 242.605 61.5474 242.366 61.271C242.132 60.9947 241.822 60.8566 241.436 60.8566C241.043 60.8566 240.729 60.9947 240.496 61.271C240.263 61.5474 240.146 61.9127 240.146 62.3671C240.146 62.8153 240.263 63.1776 240.496 63.4539C240.729 63.7303 241.043 63.8684 241.436 63.8684Z" fill="#5CFCD3"/>
<path d="M212.929 143.716L211.317 141.448C212.215 140.956 213.036 140.396 213.781 139.767C214.525 139.137 215.174 138.466 215.727 137.752C216.287 137.038 216.736 136.305 217.074 135.553C216.644 136.013 216.122 136.37 215.508 136.624C214.894 136.877 214.214 137.004 213.47 137.004C212.457 137.004 211.563 136.781 210.787 136.336C210.012 135.891 209.402 135.28 208.957 134.505C208.519 133.73 208.301 132.836 208.301 131.823C208.301 130.717 208.562 129.735 209.083 128.875C209.613 128.008 210.338 127.329 211.259 126.837C212.18 126.346 213.224 126.101 214.391 126.101C215.634 126.101 216.709 126.377 217.615 126.93C218.52 127.482 219.223 128.265 219.722 129.278C220.221 130.284 220.47 131.47 220.47 132.836C220.47 133.941 220.301 135.012 219.963 136.048C219.626 137.084 219.134 138.07 218.49 139.007C217.845 139.936 217.054 140.799 216.118 141.597C215.189 142.388 214.126 143.094 212.929 143.716ZM214.333 134.712C214.817 134.712 215.243 134.594 215.611 134.356C215.98 134.118 216.271 133.791 216.486 133.377C216.701 132.962 216.809 132.494 216.809 131.972C216.809 131.45 216.701 130.982 216.486 130.568C216.279 130.146 215.991 129.812 215.623 129.566C215.254 129.32 214.84 129.198 214.379 129.198C213.919 129.198 213.504 129.324 213.136 129.578C212.768 129.823 212.476 130.161 212.261 130.591C212.046 131.013 211.939 131.493 211.939 132.03C211.939 132.544 212.042 133.005 212.25 133.411C212.457 133.811 212.741 134.129 213.102 134.367C213.462 134.597 213.873 134.712 214.333 134.712ZM228.437 144.061C227.24 144.061 226.192 143.858 225.294 143.451C224.396 143.044 223.697 142.472 223.199 141.736C222.707 140.991 222.462 140.124 222.462 139.134C222.462 138.036 222.769 137.092 223.383 136.301C224.004 135.503 224.849 134.927 225.916 134.574C225.025 134.237 224.327 133.722 223.82 133.032C223.321 132.333 223.072 131.508 223.072 130.556C223.072 129.651 223.291 128.864 223.728 128.196C224.173 127.528 224.799 127.014 225.605 126.653C226.411 126.285 227.359 126.101 228.449 126.101C229.531 126.101 230.475 126.285 231.281 126.653C232.087 127.014 232.708 127.528 233.146 128.196C233.591 128.864 233.814 129.651 233.814 130.556C233.814 131.508 233.56 132.333 233.054 133.032C232.555 133.722 231.86 134.237 230.97 134.574C232.045 134.927 232.889 135.503 233.503 136.301C234.125 137.092 234.435 138.036 234.435 139.134C234.435 140.116 234.186 140.979 233.687 141.724C233.188 142.461 232.49 143.036 231.592 143.451C230.694 143.858 229.642 144.061 228.437 144.061ZM228.449 133.078C229.017 133.078 229.477 132.882 229.83 132.49C230.183 132.091 230.36 131.573 230.36 130.936C230.36 130.299 230.183 129.781 229.83 129.382C229.477 128.983 229.017 128.783 228.449 128.783C227.881 128.783 227.416 128.983 227.055 129.382C226.702 129.781 226.526 130.299 226.526 130.936C226.526 131.573 226.702 132.091 227.055 132.49C227.409 132.882 227.873 133.078 228.449 133.078ZM228.449 141.24C228.932 141.24 229.358 141.133 229.727 140.918C230.095 140.695 230.383 140.385 230.59 139.986C230.797 139.586 230.901 139.13 230.901 138.615C230.901 138.086 230.797 137.625 230.59 137.234C230.383 136.835 230.095 136.528 229.727 136.313C229.358 136.09 228.928 135.979 228.437 135.979C227.954 135.979 227.528 136.09 227.159 136.313C226.798 136.528 226.514 136.835 226.307 137.234C226.1 137.625 225.996 138.086 225.996 138.615C225.996 139.13 226.1 139.586 226.307 139.986C226.514 140.377 226.802 140.684 227.171 140.907C227.539 141.129 227.965 141.24 228.449 141.24ZM239.973 143.716H236.669V126.446H239.973V137.061L241.102 135.703L244.417 132.203H248.551L243.68 137.326L249.126 143.716H244.855L241.412 139.398L239.973 140.711V143.716Z" fill="white"/>
<rect x="181.558" y="166.232" width="8.25263" height="8.25263" rx="4.12632" fill="white"/>
<rect x="198.653" y="166.232" width="77.221" height="8.25263" rx="4.12632" fill="#7DA7FF"/>
<rect x="181.558" y="186.274" width="8.25263" height="8.25263" rx="4.12632" fill="white"/>
<rect x="198.653" y="186.274" width="48.9263" height="8.25263" rx="4.12632" fill="#7DA7FF"/>
<rect x="181.558" y="206.316" width="8.25263" height="8.25263" rx="4.12632" fill="white"/>
<rect x="198.653" y="206.316" width="77.221" height="8.25263" rx="4.12632" fill="#7DA7FF"/>
<rect x="181.558" y="226.358" width="8.25263" height="8.25263" rx="4.12632" fill="white"/>
<rect x="198.653" y="226.358" width="46.5684" height="8.25263" rx="4.12632" fill="#7DA7FF"/>
<rect x="181.558" y="246.4" width="8.25263" height="8.25263" rx="4.12632" fill="white"/>
<rect x="198.653" y="246.4" width="77.221" height="8.25263" rx="4.12632" fill="#7DA7FF"/>
<g clip-path="url(#clip1_12_544)">
<path d="M216.027 83.8727L218.104 79.1513C221.602 80.6898 225.395 81.4947 229.305 81.4947C244.688 81.4947 257.158 69.0247 257.158 53.6421C257.158 38.2595 244.688 25.7894 229.305 25.7894C213.923 25.7894 201.453 38.2595 201.453 53.6421H196.295C196.295 35.4109 211.074 20.6316 229.305 20.6316C247.536 20.6316 262.316 35.4109 262.316 53.6421C262.316 71.8733 247.536 86.6526 229.305 86.6526C224.676 86.6526 220.177 85.6978 216.027 83.8727Z" fill="#5CFCD3"/>
</g>
</g>
<defs>
<filter id="filter0_d_12_544" x="-2.47955e-05" y="27.1158" width="161.516" height="226.358" filterUnits="userSpaceOnUse" color-interpolation-filters="sRGB">
<feFlood flood-opacity="0" result="BackgroundImageFix"/>
<feColorMatrix in="SourceAlpha" type="matrix" values="0 0 0 0 0 0 0 0 0 0 0 0 0 0 0 0 0 0 127 0" result="hardAlpha"/>
<feMorphology radius="14.7368" operator="erode" in="SourceAlpha" result="effect1_dropShadow_12_544"/>
<feOffset dy="29.4737"/>
<feGaussianBlur stdDeviation="14.7368"/>
<feColorMatrix type="matrix" values="0 0 0 0 0.293478 0 0 0 0 0.35972 0 0 0 0 0.604535 0 0 0 0.247159 0"/>
<feBlend mode="normal" in2="BackgroundImageFix" result="effect1_dropShadow_12_544"/>
<feBlend mode="normal" in="SourceGraphic" in2="effect1_dropShadow_12_544" result="shape"/>
</filter>
<filter id="filter1_d_12_544" x="-2.47955e-05" y="226.947" width="161.516" height="130.274" filterUnits="userSpaceOnUse" color-interpolation-filters="sRGB">
<feFlood flood-opacity="0" result="BackgroundImageFix"/>
<feColorMatrix in="SourceAlpha" type="matrix" values="0 0 0 0 0 0 0 0 0 0 0 0 0 0 0 0 0 0 127 0" result="hardAlpha"/>
<feMorphology radius="14.7368" operator="erode" in="SourceAlpha" result="effect1_dropShadow_12_544"/>
<feOffset dy="29.4737"/>
<feGaussianBlur stdDeviation="14.7368"/>
<feColorMatrix type="matrix" values="0 0 0 0 0.293478 0 0 0 0 0.35972 0 0 0 0 0.604535 0 0 0 0.247159 0"/>
<feBlend mode="normal" in2="BackgroundImageFix" result="effect1_dropShadow_12_544"/>
<feBlend mode="normal" in="SourceGraphic" in2="effect1_dropShadow_12_544" result="shape"/>
</filter>
<filter id="filter2_d_12_544" x="147.958" y="0" width="161.516" height="328.926" filterUnits="userSpaceOnUse" color-interpolation-filters="sRGB">
<feFlood flood-opacity="0" result="BackgroundImageFix"/>
<feColorMatrix in="SourceAlpha" type="matrix" values="0 0 0 0 0 0 0 0 0 0 0 0 0 0 0 0 0 0 127 0" result="hardAlpha"/>
<feMorphology radius="14.7368" operator="erode" in="SourceAlpha" result="effect1_dropShadow_12_544"/>
<feOffset dy="29.4737"/>
<feGaussianBlur stdDeviation="14.7368"/>
<feColorMatrix type="matrix" values="0 0 0 0 0.293478 0 0 0 0 0.35972 0 0 0 0 0.604535 0 0 0 0.247159 0"/>
<feBlend mode="normal" in2="BackgroundImageFix" result="effect1_dropShadow_12_544"/>
<feBlend mode="normal" in="SourceGraphic" in2="effect1_dropShadow_12_544" result="shape"/>
</filter>
<linearGradient id="paint0_linear_12_544" x1="-6.97131" y1="43.9211" x2="-6.97131" y2="185.684" gradientUnits="userSpaceOnUse">
<stop stop-color="#024AFF" stop-opacity="0.148028"/>
<stop offset="1" stop-color="#3B77CF" stop-opacity="0.01"/>
</linearGradient>
<clipPath id="clip0_12_544">
<rect width="132.042" height="284.716" fill="white" transform="translate(162.695)"/>
</clipPath>
<clipPath id="clip1_12_544">
<rect width="66.021" height="66.021" fill="white" transform="translate(196.295 20.6316)"/>
</clipPath>
</defs>
</svg>
